# xmcd
#
# Track frame offsets:
# 150
# 10697
# 21205
# 30650
# 40147
# 49547
# 61040
# 71960
# 82327
# 91622
# 101760
# 115950
# 125297
# 138002
# 148440
# 159870
# 171447
# 181192
# 192130
# 203292
# 212637
# 223265
# 233562
# 242710
#
# Disc length: 3370 seconds
#
#
# Revision: 0
# Processed by: cddbd v1.5.1PL2 Copyright (c) Steve Scherf et al.
# Submitted via: FreeRIP 2.945 
#
DISCID=460d2818
DTITLE=Mel Tillis - The Best Of Mel Tillis Columbia Years
DYEAR=2003
DGENRE=Country
TTITLE0=It Takes A Worried Man
TTITLE1=Honky Tonk Song
TTITLE2=Jukebox Man
TTITLE3=This Heart
TTITLE4=Teenage Wedding
TTITLE5=The Violet And A Rose
TTITLE6=The Brooklyn Bridge
TTITLE7=Finally
TTITLE8=Sawmill
TTITLE9=Georgia Town Blues
TTITLE10=Loco Weed
TTITLE11=It's So Easy
TTITLE12=Walk On Boy
TTITLE13=Hearts Of Stone
TTITLE14=Party Girl
TTITLE15=Heart Over Mind
TTITLE16=Then Thousand Drums
TTITLE17=No Love Have I
TTITLE18=I'm Tired
TTITLE19=Tupelo County Jail
TTITLE20=Mary Don't You Weep
TTITLE21=Holiday For Love
TTITLE22=Shanghaied
TTITLE23=A Thousand Miles Ago
EXTD=Collectors ' Choice Music\nA 70846
EXTT0=
EXTT1=
EXTT2=
EXTT3=
EXTT4=
EXTT5=
EXTT6=
EXTT7=
EXTT8=
EXTT9=
EXTT10=
EXTT11=
EXTT12=
EXTT13=
EXTT14=
EXTT15=
EXTT16=
EXTT17=
EXTT18=
EXTT19=
EXTT20=
EXTT21=
EXTT22=
EXTT23=
PLAYORDER=
